<svg width="48" height="40" viewBox="0 0 48 40" fill="none" xmlns="http://www.w3.org/2000/svg">
<path d="M17.6376 0.00189133C17.2381 0.0167776 16.8476 0.138139 16.4992 0.355737C15.4599 1.00981 14.7535 2.22759 13.891 4.02132C13.0284 5.81481 12.0645 8.22772 10.8697 11.3268C8.47977 17.5246 5.17607 26.4632 0.101147 38.4185C0.0433465 38.5492 0.00955884 38.6914 0.0017523 38.8368C-0.00605425 38.9822 0.0122763 39.1279 0.0556763 39.2654C0.0990762 39.4028 0.166678 39.5293 0.254542 39.6375C0.342407 39.7457 0.448777 39.8333 0.567456 39.8954C0.686136 39.9574 0.814751 39.9926 0.945809 39.999C1.07687 40.0053 1.20775 39.9826 1.33082 39.9322C1.4539 39.8818 1.56671 39.8047 1.66269 39.7054C1.75867 39.6061 1.83589 39.4866 1.88985 39.3538C6.9859 27.3492 10.3091 18.3586 12.6875 12.1897C13.8768 9.1054 14.8314 6.7267 15.6342 5.05731C16.4369 3.38827 17.1432 2.47269 17.4717 2.26595C17.6359 2.16276 17.6562 2.17096 17.761 2.20124C17.8661 2.23128 18.0874 2.35701 18.3855 2.68139C18.982 3.33015 19.8078 4.69561 20.8118 6.66106C22.7972 10.5481 25.5723 16.7842 29.8953 25.0386C29.4113 26.3483 28.9169 27.6533 28.4123 28.9534C28.3571 29.0863 28.3264 29.2302 28.322 29.3766C28.3176 29.5229 28.3396 29.6688 28.3868 29.8055C28.4339 29.9423 28.5052 30.0671 28.5965 30.1728C28.6877 30.2785 28.7971 30.3629 28.9182 30.4209C29.0393 30.479 29.1695 30.5096 29.3014 30.5108C29.4333 30.5121 29.564 30.4841 29.686 30.4285C29.808 30.3728 29.9187 30.2906 30.0116 30.1867C30.1045 30.0828 30.1778 29.9593 30.2271 29.8235C32.3165 24.4472 33.7319 20.2197 34.8259 17.5198C35.3729 16.1701 35.8539 15.2017 36.2018 14.7356C36.3521 14.534 36.4569 14.4506 36.5009 14.4215C36.5689 14.4631 37.0137 14.8706 37.535 15.8623C38.0723 16.8839 38.7213 18.4274 39.4963 20.4848C41.0463 24.5993 43.1166 30.7821 46.0855 39.2814C46.1316 39.4172 46.2014 39.5415 46.291 39.6471C46.3807 39.7528 46.4882 39.8376 46.6076 39.8968C46.7269 39.956 46.8556 39.9884 46.9863 39.992C47.1169 39.9956 47.2469 39.9705 47.3688 39.918C47.4906 39.8655 47.6019 39.7867 47.6961 39.6861C47.7904 39.5856 47.8658 39.4653 47.9179 39.3323C47.97 39.1992 47.9979 39.056 47.9999 38.9109C48.0019 38.7657 47.9779 38.6216 47.9295 38.4869C44.9655 30.0013 42.9006 23.8298 41.3208 19.636C40.5309 17.539 39.8645 15.94 39.2425 14.757C38.6207 13.5742 38.0883 12.7304 37.1839 12.3484C36.9579 12.253 36.7056 12.2113 36.4554 12.2185C36.2053 12.2256 35.9581 12.2824 35.7399 12.3884C35.3036 12.5998 34.9744 12.9396 34.6798 13.3343C34.0903 14.1243 33.5953 15.2003 33.0211 16.6171C32.3921 18.1693 31.6854 20.1399 30.8387 22.4672C26.9835 15.0043 24.4512 9.33374 22.5326 5.57734C21.4996 3.55503 20.6634 2.08764 19.768 1.1137C19.3205 0.626842 18.8393 0.241448 18.2558 0.0736538C18.054 0.0166993 17.8457 -0.00724067 17.6376 0.00189133ZM18.1611 29.9066C14.004 29.9066 10.6355 34.4169 10.6355 39.9821H25.687C25.687 34.4167 22.3183 29.9066 18.1611 29.9066Z" fill="#0B0B0C"/>
</svg>
