<svg width="40" height="40" viewBox="0 0 40 40" fill="none" xmlns="http://www.w3.org/2000/svg">
<path d="M11.655 0.104529C12.2264 0.247487 12.7175 0.611251 13.0204 1.1158C13.3232 1.62035 13.4129 2.22436 13.2698 2.79496L4.38499 38.283C4.31838 38.5698 4.19523 38.8406 4.02273 39.0794C3.85023 39.3183 3.63183 39.5204 3.38027 39.6741C3.12871 39.8277 2.84903 39.9298 2.55753 39.9744C2.26604 40.019 1.96857 40.0052 1.68248 39.9338C1.39639 39.8624 1.1274 39.7348 0.891213 39.5584C0.655025 39.3821 0.456362 39.1606 0.306813 38.9068C0.157263 38.653 0.0598206 38.372 0.0201699 38.0802C-0.0194808 37.7884 -0.000546529 37.4917 0.0758689 37.2073L8.96065 1.71923C9.0313 1.4365 9.15705 1.17044 9.33071 0.936262C9.50437 0.702079 9.72254 0.504361 9.97275 0.354407C10.223 0.204454 10.5003 0.105204 10.789 0.0623284C11.0776 0.0194531 11.3719 0.0337929 11.655 0.104529ZM31.0393 1.71702L39.9241 37.205C40.0005 37.4895 40.0195 37.7862 39.9798 38.078C39.9402 38.3698 39.8427 38.6508 39.6932 38.9046C39.5436 39.1584 39.345 39.3799 39.1088 39.5562C38.8726 39.7325 38.6036 39.8601 38.3175 39.9316C38.0314 40.003 37.734 40.0168 37.4425 39.9722C37.151 39.9276 36.8713 39.8255 36.6197 39.6719C36.3682 39.5182 36.1498 39.316 35.9773 39.0772C35.8048 38.8384 35.6816 38.5676 35.615 38.2808L26.7302 2.79275C26.6538 2.50833 26.6349 2.21157 26.6745 1.91978C26.7142 1.62798 26.8116 1.34699 26.9612 1.09319C27.1107 0.839394 27.3094 0.617875 27.5456 0.441555C27.7818 0.265235 28.0507 0.137644 28.3368 0.0662242C28.6229 -0.00519559 28.9204 -0.0190142 29.2119 0.0255749C29.5034 0.0701639 29.7831 0.172268 30.0346 0.32593C30.2862 0.479593 30.5046 0.681738 30.6771 0.920574C30.8496 1.15941 30.9727 1.43015 31.0393 1.71702ZM20 31.09C20.544 31.0901 21.0691 31.2895 21.4757 31.6505C21.8823 32.0115 22.142 32.509 22.2056 33.0485L22.2212 33.308V37.744C22.2206 38.3093 22.0038 38.8531 21.6151 39.2642C21.2265 39.6752 20.6953 39.9226 20.1302 39.9557C19.565 39.9889 19.0085 39.8053 18.5744 39.4424C18.1402 39.0796 17.8612 38.5649 17.7944 38.0035L17.7788 37.744V33.308C17.7788 32.7198 18.0128 32.1556 18.4294 31.7396C18.8459 31.3237 19.4109 31.09 20 31.09ZM20 15.564C20.5891 15.564 21.1541 15.7977 21.5706 16.2136C21.9872 16.6296 22.2212 17.1937 22.2212 17.782V22.218C22.2212 22.8063 21.9872 23.3704 21.5706 23.7864C21.1541 24.2023 20.5891 24.436 20 24.436C19.4109 24.436 18.8459 24.2023 18.4294 23.7864C18.0128 23.3704 17.7788 22.8063 17.7788 22.218V17.782C17.7788 17.1937 18.0128 16.6296 18.4294 16.2136C18.8459 15.7977 19.4109 15.564 20 15.564ZM20 0.0379887C20.544 0.0380604 21.0691 0.237512 21.4757 0.598512C21.8823 0.959512 22.142 1.45695 22.2056 1.99648L22.2212 2.25599V6.69199C22.2206 7.25732 22.0038 7.80107 21.6151 8.21214C21.2265 8.62322 20.6953 8.87059 20.1302 8.90372C19.565 8.93685 19.0085 8.75324 18.5744 8.39039C18.1402 8.02755 17.8612 7.51287 17.7944 6.9515L17.7788 6.69199V2.25599C17.7788 1.66774 18.0128 1.10358 18.4294 0.687626C18.8459 0.27167 19.4109 0.0379887 20 0.0379887Z" fill="#0B0B0C"/>
</svg>
