<svg width="24" height="25" viewBox="0 0 24 25" fill="none" xmlns="http://www.w3.org/2000/svg">
<path d="M19.3846 17.1154C18.9231 17.1154 18.4615 16.9308 18.0923 16.5615L15.3231 13.7923C14.9538 13.4231 14.7692 12.9615 14.7692 12.5C14.7692 12.0385 14.9538 11.5769 15.3231 11.2077L18.0923 8.43846C18.4615 8.06923 18.9231 7.88462 19.3846 7.88462C19.8462 7.88462 20.3077 8.06923 20.6769 8.43846L23.4462 11.2077C23.8154 11.5769 24 12.0385 24 12.5C24 12.9615 23.8154 13.4231 23.4462 13.7923L20.6769 16.5615C20.3077 16.9308 19.8462 17.1154 19.3846 17.1154ZM19.3846 9.73077L16.6154 12.5L19.3846 15.2692L22.1538 12.5L19.3846 9.73077ZM12 9.73077C11.5385 9.73077 11.0769 9.54615 10.7077 9.17692L7.93846 6.40769C7.56923 6.03846 7.38462 5.57692 7.38462 5.11538C7.38462 4.65385 7.56923 4.19231 7.93846 3.82308L10.7077 1.05385C11.0769 0.684615 11.5385 0.5 12 0.5C12.4615 0.5 12.9231 0.684615 13.2923 1.05385L16.0615 3.82308C16.4308 4.19231 16.6154 4.65385 16.6154 5.11538C16.6154 5.57692 16.4308 6.03846 16.0615 6.40769L13.2923 9.17692C12.9231 9.54615 12.4615 9.73077 12 9.73077ZM12 2.34615L9.23077 5.11538L12 7.88462L14.7692 5.11538L12 2.34615ZM12 24.5C11.5385 24.5 11.0769 24.3154 10.7077 23.9462L7.93846 21.1769C7.56923 20.8077 7.38462 20.3462 7.38462 19.8846C7.38462 19.4231 7.56923 18.9615 7.93846 18.5923L10.7077 15.8231C11.0769 15.4538 11.5385 15.2692 12 15.2692C12.4615 15.2692 12.9231 15.4538 13.2923 15.8231L16.0615 18.5923C16.4308 18.9615 16.6154 19.4231 16.6154 19.8846C16.6154 20.3462 16.4308 20.8077 16.0615 21.1769L13.2923 23.9462C12.9231 24.3154 12.4615 24.5 12 24.5ZM12 17.1154L9.23077 19.8846L12 22.6538L14.7692 19.8846L12 17.1154ZM4.61538 17.1154C4.15385 17.1154 3.69231 16.9308 3.32308 16.5615L0.553846 13.7923C0.184615 13.4231 0 12.9615 0 12.5C0 12.0385 0.184615 11.5769 0.553846 11.2077L3.32308 8.43846C3.69231 8.06923 4.15385 7.88462 4.61538 7.88462C5.07692 7.88462 5.53846 8.06923 5.90769 8.43846L8.67692 11.2077C9.04615 11.5769 9.23077 12.0385 9.23077 12.5C9.23077 12.9615 9.04615 13.4231 8.67692 13.7923L5.90769 16.5615C5.53846 16.9308 5.07692 17.1154 4.61538 17.1154ZM4.61538 9.73077L1.84615 12.5L4.61538 15.2692L7.38462 12.5L4.61538 9.73077Z" fill="#646363"/>
</svg>
