<svg width="43" height="40" viewBox="0 0 43 40" fill="none" xmlns="http://www.w3.org/2000/svg">
<path d="M10.4315 0C5.19143 0 0.944336 4.82546 0.944336 10.7782V36.4073C0.944336 38.3927 2.36109 40 4.10673 40H7.26912V23.8327C7.26912 14.9018 13.6413 7.66545 21.4999 7.66545C29.3584 7.66545 35.7307 14.9018 35.7307 23.8327V40H38.8931C40.6387 40 42.0554 38.3927 42.0554 36.4073V10.7782C42.0554 4.82546 37.8084 0 32.5683 0H10.4315ZM32.5683 29.0909V25.6291C32.5683 17.6909 27.6128 11.2582 21.4999 11.2582C15.387 11.2582 10.4315 17.6945 10.4315 25.6291V40L32.5683 29.0909Z" fill="#0B0B0C"/>
</svg>
