<svg width="24" height="24" viewBox="0 0 24 24" fill="none" xmlns="http://www.w3.org/2000/svg">
<path d="M12 2.32258C17.3483 2.32258 21.6774 6.65085 21.6774 12C21.6774 17.3483 17.3491 21.6774 12 21.6774C6.65168 21.6774 2.32258 17.3491 2.32258 12C2.32258 6.65168 6.65085 2.32258 12 2.32258ZM12 0C5.37256 0 0 5.37256 0 12C0 18.6274 5.37256 24 12 24C18.6274 24 24 18.6274 24 12C24 5.37256 18.6274 0 12 0ZM12 8.12903C9.86211 8.12903 8.12903 9.86211 8.12903 12C8.12903 14.1379 9.86211 15.871 12 15.871C14.1379 15.871 15.871 14.1379 15.871 12C15.871 9.86211 14.1379 8.12903 12 8.12903Z" fill="#6AA237"/>
</svg>
