<svg width="65" height="64" viewBox="0 0 65 64" fill="none" xmlns="http://www.w3.org/2000/svg">
<g clip-path="url(#clip0_1201_16324)">
<rect width="64" height="64" transform="translate(0.332031)" fill="white"/>
<path d="M0.332031 0H32.332C50.0051 0 64.332 14.3269 64.332 32C64.332 49.6731 50.0051 64 32.332 64C14.6589 64 0.332031 49.6731 0.332031 32V0Z" fill="#FEC13B"/>
<g clip-path="url(#clip1_1201_16324)">
<rect width="64" height="64" transform="translate(0.475098 0.5)" fill="white"/>
<path d="M78.482 47.0247H-13.9319V40.9727H78.482V47.0247Z" fill="white" fill-opacity="0.5"/>
<path d="M0.0612515 20.5568C-1.53392 21.1489 -3.0747 21.8755 -4.54416 22.729C-4.78356 22.8642 -5.01356 23.0124 -5.24734 23.1546C-5.42341 23.2633 -5.60312 23.3704 -5.77919 23.4791C-11.3097 27.0122 -14.73 31.9205 -17.0213 38.018L-13.3751 47.8659C-11.722 41.8141 -9.43549 33.2058 -3.00252 29.5549C7.62697 22.1831 22.2046 24.6766 29.5583 35.1238C36.912 45.571 34.256 60.0157 23.6265 67.3875C21.9865 68.5249 20.209 69.4518 18.3342 70.1445L18.3007 70.1569L18.309 70.1794L-2.28984 77.8061L0.000285969 83.9914L19.664 76.711L19.6665 76.7176L20.7128 76.3301C20.7945 76.2999 20.8711 76.264 20.9515 76.2342L21.0775 76.1876C36.642 70.2536 44.5104 53.005 38.6548 37.6627C32.8265 22.3944 15.5913 14.7557 0.0635692 20.5589" fill="white" fill-opacity="0.7"/>
<path d="M70.6651 15.9085L48.5408 13.8527C58.4138 9.9285 66.0737 1.22427 72.8181 -7.26098L73.8721 -18.6029C61.9707 -5.4497 51.4645 9.65282 34.827 12.1223L33.1358 12.4857L32.5416 19.6092L70.0035 23.0289L70.6651 15.9085Z" fill="white" fill-opacity="0.8"/>
<path d="M0.475098 0.5H32.4751C50.1482 0.5 64.4751 14.8269 64.4751 32.5C64.4751 50.1731 50.1482 64.5 32.4751 64.5C14.802 64.5 0.475098 50.1731 0.475098 32.5V0.5Z" fill="#FEC13B"/>
<path d="M78.3424 47.2425H-14.0715V41.1905H78.3424V47.2425Z" fill="white" fill-opacity="0.5"/>
<path d="M-0.0793735 20.775C-1.67454 21.3671 -3.21533 22.0937 -4.68479 22.9472C-4.92419 23.0824 -5.15418 23.2306 -5.38796 23.3728C-5.56403 23.4815 -5.74375 23.5886 -5.91982 23.6973C-11.4504 27.2304 -14.8706 32.1387 -17.162 38.2362L-13.5158 48.0841C-11.8626 42.0323 -9.57612 33.424 -3.14315 29.7731C7.48635 22.4013 22.064 24.8948 29.4177 35.342C36.7714 45.7892 34.1154 60.2339 23.4859 67.6057C21.8458 68.7431 20.0684 69.67 18.1936 70.3627L18.1601 70.3751L18.1684 70.3976L-2.43046 78.0243L-0.140339 84.2096L19.5234 76.9292L19.5258 76.9358L20.5722 76.5483C20.6539 76.5181 20.7305 76.4822 20.8109 76.4525L20.9368 76.4058C36.5014 70.4718 44.3698 53.2232 38.5141 37.8809C32.6859 22.6126 15.4506 14.9739 -0.0770558 20.7771" fill="white" fill-opacity="0.7"/>
<path d="M70.525 16.1268L48.4007 14.0709C58.2736 10.1467 65.9335 1.44251 72.678 -7.04275L73.7319 -18.3847C61.8305 -5.23147 51.3243 9.87105 34.6869 12.3405L32.9956 12.7039L32.4015 19.8274L69.8633 23.2471L70.525 16.1268Z" fill="white" fill-opacity="0.8"/>
</g>
</g>
<defs>
<clipPath id="clip0_1201_16324">
<rect width="64" height="64" fill="white" transform="translate(0.332031)"/>
</clipPath>
<clipPath id="clip1_1201_16324">
<rect width="64" height="64" fill="white" transform="translate(0.475098 0.5)"/>
</clipPath>
</defs>
</svg>
