<svg width="64" height="64" viewBox="0 0 64 64" fill="none" xmlns="http://www.w3.org/2000/svg">
<g clip-path="url(#clip0_1201_16308)">
<rect width="64" height="64" fill="white"/>
<path d="M78.0069 46.5247H-14.407V40.4727H78.0069V46.5247Z" fill="white" fill-opacity="0.5"/>
<path d="M-0.413846 20.0568C-2.00902 20.6489 -3.5498 21.3755 -5.01926 22.229C-5.25866 22.3642 -5.48866 22.5124 -5.72244 22.6546C-5.8985 22.7633 -6.07822 22.8704 -6.25429 22.9791C-11.7848 26.5122 -15.2051 31.4205 -17.4964 37.518L-13.8502 47.3659C-12.1971 41.3141 -9.91059 32.7058 -3.47762 29.0549C7.15188 21.6831 21.7295 24.1766 29.0832 34.6238C36.4369 45.071 33.7809 59.5157 23.1514 66.8875C21.5114 68.0249 19.734 68.9518 17.8591 69.6445L17.8256 69.6569L17.834 69.6794L-2.76493 77.3061L-0.474812 83.4914L19.1889 76.211L19.1914 76.2176L20.2377 75.8301C20.3194 75.7999 20.396 75.764 20.4764 75.7342L20.6024 75.6876C36.1669 69.7536 44.0353 52.505 38.1797 37.1627C32.3514 21.8944 15.1162 14.2557 -0.411528 20.0589" fill="white" fill-opacity="0.7"/>
<path d="M70.19 15.4085L48.0657 13.3527C57.9387 9.4285 65.5986 0.724274 72.343 -7.76098L73.397 -19.1029C61.4956 -5.9497 50.9894 9.15282 34.3519 11.6223L32.6607 11.9857L32.0665 19.1092L69.5284 22.5289L70.19 15.4085Z" fill="white" fill-opacity="0.8"/>
<path d="M0 0H32C49.6731 0 64 14.3269 64 32C64 49.6731 49.6731 64 32 64C14.3269 64 0 49.6731 0 32V0Z" fill="#CD2127"/>
<path d="M87.372 1.46611L22.0255 66.8126L17.7461 62.5332L83.0926 -2.81331L87.372 1.46611Z" fill="white" fill-opacity="0.5"/>
<path d="M17.5892 -13.1356L81.0001 54.0908L79.6284 55.3846L16.2175 -11.8418L17.5892 -13.1356Z" fill="white" fill-opacity="0.8"/>
<path d="M13.8027 31.6283C12.2075 32.2205 10.6668 32.9471 9.19729 33.8006C8.95789 33.9358 8.7279 34.084 8.49412 34.2261C8.31805 34.3349 8.13833 34.442 7.96226 34.5507C2.43171 38.0837 -0.988506 42.9921 -3.27989 49.0895L0.36631 58.9375C2.01949 52.8856 4.30596 44.2774 10.7389 40.6265C21.3684 33.2547 35.9461 35.7481 43.2998 46.1954C50.6535 56.6426 47.9975 71.0873 37.368 78.4591C35.7279 79.5965 33.9505 80.5234 32.0757 81.2161L32.0422 81.2285L32.0505 81.2509L11.4516 88.8776L13.7417 95.063L33.4055 87.7825L33.4079 87.7891L34.4543 87.4017C34.536 87.3715 34.6126 87.3356 34.693 87.3058L34.8189 87.2592C50.3835 81.3252 58.2519 64.0766 52.3962 48.7343C46.568 33.466 29.3327 25.8273 13.805 31.6305" fill="white" fill-opacity="0.7"/>
<path d="M1.75364 -1.62274L18.4471 13.0415C8.15259 10.4151 -3.1601 12.9569 -13.6034 15.8594L-21.121 24.4172C-3.762 20.768 13.6135 14.7217 28.5266 22.5002L30.1085 23.2L34.7752 17.7852L6.47306 -6.99522L1.75364 -1.62274Z" fill="white" fill-opacity="0.8"/>
</g>
<defs>
<clipPath id="clip0_1201_16308">
<rect width="64" height="64" fill="white"/>
</clipPath>
</defs>
</svg>
