<svg width="65" height="64" viewBox="0 0 65 64" fill="none" xmlns="http://www.w3.org/2000/svg">
<g id="Frame 1713" clip-path="url(#clip0_1366_17505)">
<rect width="64" height="64" transform="translate(0.666992)" fill="white"/>
<g id="cad-pillar_BW2">
<g id="Raggruppa_3">
<path id="Tracciato_598" d="M78.6737 46.5247H-13.7402V40.4727H78.6737V46.5247Z" fill="white" fill-opacity="0.5"/>
</g>
</g>
<path id="Tracciato_596" d="M0.252902 20.0566C-1.34227 20.6487 -2.88305 21.3754 -4.35251 22.2288C-4.59191 22.364 -4.82191 22.5123 -5.05569 22.6544C-5.23175 22.7631 -5.41147 22.8702 -5.58754 22.979C-11.1181 26.512 -14.5383 31.4204 -16.8297 37.5178L-13.1835 47.3658C-11.5303 41.3139 -9.24384 32.7057 -2.81088 29.0548C7.81862 21.6829 22.3963 24.1764 29.75 34.6236C37.1036 45.0709 34.4477 59.5155 23.8182 66.8874C22.1781 68.0248 20.4007 68.9517 18.5259 69.6443L18.4924 69.6567L18.5007 69.6792L-2.09818 77.3059L0.191937 83.4913L19.8557 76.2108L19.8581 76.2174L20.9045 75.83C20.9862 75.7997 21.0628 75.7639 21.1432 75.7341L21.2691 75.6875C36.8337 69.7535 44.7021 52.5048 38.8464 37.1626C33.0181 21.8942 15.7829 14.2556 0.255219 20.0588" fill="white" fill-opacity="0.7"/>
<path id="Tracciato_597" d="M70.8568 15.4086L48.7325 13.3528C58.6054 9.4286 66.2653 0.724365 73.0098 -7.76089L74.0637 -19.1028C62.1623 -5.9496 51.6561 9.15291 35.0186 11.6224L33.3274 11.9858L32.7333 19.1093L70.1951 22.5289L70.8568 15.4086Z" fill="white" fill-opacity="0.8"/>
<path id="Rectangle 50" d="M0.666992 0H32.667C50.3401 0 64.667 14.3269 64.667 32V32C64.667 49.6731 50.3401 64 32.667 64V64C14.9939 64 0.666992 49.6731 0.666992 32V0Z" fill="#6AA237"/>
<g id="cad-pillar_BW2_2">
<g id="Raggruppa_3_2">
<path id="Tracciato_598_2" d="M19.7877 -14.6117L62.2144 67.4877L56.8379 70.2661L14.4112 -11.8333L19.7877 -14.6117Z" fill="white" fill-opacity="0.5"/>
</g>
</g>
<path id="Tracciato_597_2" d="M61.6019 52.1973L34.2638 49.6569C46.4634 44.808 55.9284 34.0525 64.2623 23.5676L65.5646 9.55277C50.8585 25.8057 37.8764 44.4673 17.3181 47.5187L15.2283 47.9677L14.4942 56.77L60.7843 60.9955L61.6019 52.1973Z" fill="white" fill-opacity="0.8"/>
<path id="Tracciato_595" d="M-62.8055 -4.1285L18.7494 -6.99356C29.7718 -7.37683 39.0321 1.64844 39.4339 13.1676C39.8344 24.6869 31.2259 34.336 20.2035 34.7206C9.18236 35.1038 0.995794 26.0437 0.592862 14.5258L0.0757922 -0.344447L-5.61212 -0.146667L-5.09523 14.7186C-4.58054 29.5203 6.24566 41.1562 20.4089 40.6624C34.5709 40.1674 45.634 27.7692 45.1193 12.9687C44.6047 -1.8318 32.7048 -13.4303 18.5427 -12.9379L-63.0122 -10.0728L-62.8055 -4.1285Z" fill="white" fill-opacity="0.8"/>
</g>
<defs>
<clipPath id="clip0_1366_17505">
<rect width="64" height="64" fill="white" transform="translate(0.666992)"/>
</clipPath>
</defs>
</svg>
