<svg width="65" height="64" viewBox="0 0 65 64" fill="none" xmlns="http://www.w3.org/2000/svg">
<g clip-path="url(#clip0_1366_17490)">
<rect width="64" height="64" transform="translate(0.476562 0.5)" fill="white"/>
<path d="M78.4832 47.0247H-13.9307V40.9727H78.4832V47.0247Z" fill="white" fill-opacity="0.5"/>
<path d="M0.0624723 20.5566C-1.5327 21.1487 -3.07348 21.8754 -4.54294 22.7288C-4.78234 22.864 -5.01234 23.0123 -5.24612 23.1544C-5.42218 23.2631 -5.6019 23.3702 -5.77797 23.479C-11.3085 27.012 -14.7287 31.9204 -17.0201 38.0178L-13.3739 47.8658C-11.7207 41.8139 -9.43427 33.2057 -3.0013 29.5548C7.62819 22.1829 22.2059 24.6764 29.5595 35.1236C36.9132 45.5709 34.2573 60.0155 23.6278 67.3874C21.9877 68.5248 20.2103 69.4517 18.3354 70.1443L18.302 70.1567L18.3103 70.1792L-2.28861 77.8059L0.00150721 83.9913L19.6652 76.7108L19.6677 76.7174L20.714 76.33C20.7958 76.2997 20.8724 76.2639 20.9527 76.2341L21.0787 76.1875C36.6433 70.2535 44.5117 53.0048 38.656 37.6626C32.8277 22.3942 15.5925 14.7556 0.0647894 20.5588" fill="white" fill-opacity="0.7"/>
<path d="M70.6663 15.9086L48.542 13.8528C58.415 9.9286 66.0749 1.22437 72.8193 -7.26089L73.8733 -18.6028C61.9719 -5.4496 51.4657 9.65291 34.8282 12.1224L33.137 12.4858L32.5429 19.6093L70.0047 23.0289L70.6663 15.9086Z" fill="white" fill-opacity="0.8"/>
<path d="M0.476562 0.5H32.4766C50.1497 0.5 64.4766 14.8269 64.4766 32.5V32.5C64.4766 50.1731 50.1497 64.5 32.4766 64.5V64.5C14.8035 64.5 0.476562 50.1731 0.476562 32.5V0.5Z" fill="#91357C"/>
<path d="M78.3436 47.2424H-14.0703V41.1904H78.3436V47.2424Z" fill="white" fill-opacity="0.5"/>
<path d="M-0.0781527 20.7749C-1.67332 21.367 -3.21411 22.0937 -4.68357 22.9471C-4.92296 23.0823 -5.15296 23.2305 -5.38674 23.3727C-5.56281 23.4814 -5.74253 23.5885 -5.91859 23.6972C-11.4491 27.2303 -14.8694 32.1386 -17.1607 38.2361L-13.5145 48.084C-11.8614 42.0322 -9.5749 33.4239 -3.14193 29.773C7.48757 22.4012 22.0652 24.8947 29.4189 35.3419C36.7726 45.7891 34.1166 60.2338 23.4871 67.6056C21.8471 68.743 20.0696 69.67 18.1948 70.3626L18.1613 70.375L18.1696 70.3975L-2.42924 78.0242L-0.139118 84.2095L19.5246 76.9291L19.5271 76.9357L20.5734 76.5483C20.6551 76.518 20.7317 76.4821 20.8121 76.4524L20.9381 76.4057C36.5026 70.4718 44.371 53.2231 38.5154 37.8808C32.6871 22.6125 15.4518 14.9738 -0.0758356 20.777" fill="white" fill-opacity="0.7"/>
<path d="M70.5267 16.1269L48.4024 14.071C58.2754 10.1469 65.9352 1.44263 72.6797 -7.04263L73.7336 -18.3846C61.8322 -5.23134 51.3261 9.87117 34.6886 12.3406L32.9973 12.704L32.4032 19.8275L69.865 23.2472L70.5267 16.1269Z" fill="white" fill-opacity="0.8"/>
</g>
<defs>
<clipPath id="clip0_1366_17490">
<rect width="64" height="64" fill="white" transform="translate(0.476562 0.5)"/>
</clipPath>
</defs>
</svg>
