<svg width="30" height="40" viewBox="0 0 30 40" fill="none" xmlns="http://www.w3.org/2000/svg">
<path d="M15 40C11.0313 40 7.53875 38.4972 4.5225 35.4915C1.50625 32.4858 -0.00124922 28.4175 7.76719e-07 23.2866C7.76719e-07 20.0594 1.125 16.5605 3.375 12.7898C5.625 9.01911 9.03125 4.94268 13.5938 0.56051C13.7813 0.390658 14 0.254777 14.25 0.152866C14.5 0.0509555 14.75 0 15 0C15.25 0 15.5 0.0509555 15.75 0.152866C16 0.254777 16.2187 0.390658 16.4062 0.56051C20.9688 4.94268 24.375 9.01911 26.625 12.7898C28.875 16.5605 30 20.0594 30 23.2866C30 28.4161 28.4919 32.4844 25.4756 35.4915C22.4594 38.4985 18.9675 40.0014 15 40ZM15 35.9236C18.1562 35.9236 20.8206 34.7516 22.9931 32.4076C25.1656 30.0637 26.2512 27.0234 26.25 23.2866C26.25 20.8747 25.3281 18.1143 23.4844 15.0054C21.6406 11.8964 18.8125 8.44026 15 4.63694C11.1875 8.44161 8.35938 11.8984 6.51563 15.0074C4.67188 18.1163 3.75 20.8761 3.75 23.2866C3.75 27.0234 4.83625 30.0637 7.00875 32.4076C9.18125 34.7516 11.845 35.9236 15 35.9236ZM15.5156 33.8854C15.8906 33.8514 16.2113 33.6897 16.4775 33.4003C16.7438 33.1108 16.8762 32.763 16.875 32.3567C16.875 31.8811 16.7344 31.4986 16.4531 31.2092C16.1719 30.9197 15.8125 30.7927 15.375 30.828C14.0937 30.9299 12.7344 30.5474 11.2969 29.6805C9.85938 28.8136 8.95313 27.2428 8.57813 24.9682C8.51563 24.5945 8.35188 24.2887 8.08688 24.051C7.82188 23.8132 7.51688 23.6943 7.17188 23.6943C6.73438 23.6943 6.375 23.873 6.09375 24.2303C5.8125 24.5877 5.71875 25.0035 5.8125 25.4777C6.34375 28.569 7.59375 30.7771 9.5625 32.1019C11.5313 33.4268 13.5156 34.0212 15.5156 33.8854Z" fill="#0B0B0C"/>
</svg>
