<svg width="23" height="32" viewBox="0 0 23 32" fill="none" xmlns="http://www.w3.org/2000/svg">
<path d="M11.5 7.2C12.5893 7.2 13.634 7.62143 14.4042 8.37157C15.1744 9.12172 15.6071 10.1391 15.6071 11.2C15.6071 11.7253 15.5009 12.2454 15.2945 12.7307C15.0881 13.216 14.7856 13.657 14.4042 14.0284C14.0228 14.3999 13.57 14.6945 13.0717 14.8955C12.5734 15.0965 12.0394 15.2 11.5 15.2C10.4107 15.2 9.36605 14.7786 8.59581 14.0284C7.82557 13.2783 7.39286 12.2609 7.39286 11.2C7.39286 10.1391 7.82557 9.12172 8.59581 8.37157C9.36605 7.62143 10.4107 7.2 11.5 7.2ZM11.5 0C14.55 0 17.4751 1.18 19.6317 3.2804C21.7884 5.38081 23 8.22958 23 11.2C23 19.6 11.5 32 11.5 32C11.5 32 0 19.6 0 11.2C0 8.22958 1.2116 5.38081 3.36827 3.2804C5.52494 1.18 8.45001 0 11.5 0ZM11.5 3.2C9.32144 3.2 7.2321 4.04285 5.69162 5.54315C4.15115 7.04344 3.28571 9.07827 3.28571 11.2C3.28571 12.8 3.28571 16 11.5 26.736C19.7143 16 19.7143 12.8 19.7143 11.2C19.7143 9.07827 18.8489 7.04344 17.3084 5.54315C15.7679 4.04285 13.6786 3.2 11.5 3.2Z" fill="#BFBFBF"/>
</svg>
