<svg width="42" height="40" viewBox="0 0 42 40" fill="none" xmlns="http://www.w3.org/2000/svg">
<path d="M40.7139 20.9665L31.999 16.6114V6.39894C31.9988 6.10189 31.9159 5.81075 31.7597 5.55812C31.6034 5.3055 31.3799 5.10136 31.1142 4.96858L21.5145 0.16874C21.2924 0.0577699 21.0476 0 20.7993 0C20.5511 0 20.3062 0.0577699 20.0841 0.16874L10.4845 4.96858C10.2187 5.10136 9.99523 5.3055 9.83896 5.55812C9.6827 5.81075 9.59985 6.10189 9.59969 6.39894V16.6098L0.884771 20.9665C0.618808 21.0994 0.395138 21.3037 0.238855 21.5567C0.0825732 21.8096 -0.000138375 22.1011 1.73774e-07 22.3984V33.5981C0.000158806 33.8951 0.0830105 34.1862 0.239276 34.4389C0.395542 34.6915 0.619051 34.8956 0.884771 35.0284L10.4845 39.8282C10.7066 39.9391 10.9514 39.9968 11.1996 39.9968C11.4479 39.9968 11.6927 39.9391 11.9148 39.8282L20.7993 35.3884L29.6838 39.8314C29.9059 39.9423 30.1508 40 30.399 40C30.6472 40 30.8921 39.9423 31.1142 39.8314L40.7139 35.0316C40.9801 34.8986 41.2039 34.694 41.3602 34.4407C41.5165 34.1875 41.5991 33.8956 41.5986 33.5981V22.3984C41.5988 22.1011 41.5161 21.8096 41.3598 21.5567C41.2035 21.3037 40.9798 21.0994 40.7139 20.9665ZM28.7991 16.6114L22.3993 19.8113V12.1891L28.7991 8.98925V16.6114ZM20.7993 3.38944L26.8215 6.39894L20.7993 9.41004L14.7771 6.39894L20.7993 3.38944ZM12.7996 8.98925L19.1994 12.1891V19.8113L12.7996 16.6114V8.98925ZM9.59969 35.8092L3.1999 32.6093V24.9871L9.59969 28.187V35.8092ZM11.1996 25.4095L5.17743 22.3984L11.1996 19.3873L17.2218 22.3984L11.1996 25.4095ZM12.7996 28.187L19.1994 24.9871V32.6093L12.7996 35.8092V28.187ZM28.7991 35.8092L22.3993 32.6093V24.9871L28.7991 28.187V35.8092ZM30.399 25.4095L24.3768 22.3984L30.399 19.3873L36.4212 22.3984L30.399 25.4095ZM38.3988 32.6093L31.999 35.8092V28.187L38.3988 24.9871V32.6093Z" fill="#0B0B0C"/>
</svg>
