<svg width="44" height="44" viewBox="0 0 44 44" fill="none" xmlns="http://www.w3.org/2000/svg">
<path d="M14.2222 22H22V10.8889M2 22C2 24.6264 2.51732 27.2272 3.52241 29.6537C4.5275 32.0802 6.00069 34.285 7.85786 36.1421C9.71504 37.9993 11.9198 39.4725 14.3463 40.4776C16.7728 41.4827 19.3736 42 22 42C24.6264 42 27.2272 41.4827 29.6537 40.4776C32.0802 39.4725 34.285 37.9993 36.1421 36.1421C37.9993 34.285 39.4725 32.0802 40.4776 29.6537C41.4827 27.2272 42 24.6264 42 22C42 19.3736 41.4827 16.7728 40.4776 14.3463C39.4725 11.9198 37.9993 9.71504 36.1421 7.85786C34.285 6.00069 32.0802 4.5275 29.6537 3.52241C27.2272 2.51732 24.6264 2 22 2C19.3736 2 16.7728 2.51732 14.3463 3.52241C11.9198 4.5275 9.71504 6.00069 7.85786 7.85786C6.00069 9.71504 4.5275 11.9198 3.52241 14.3463C2.51732 16.7728 2 19.3736 2 22Z" stroke="#0B0B0C" stroke-width="3" stroke-linecap="round" stroke-linejoin="round"/>
</svg>
