<svg width="41" height="41" viewBox="0 0 41 41" fill="none" xmlns="http://www.w3.org/2000/svg">
<path d="M20.2949 0.224514C9.04735 0.0726057 -0.134921 9.25443 0.016995 20.5015C0.166988 31.2879 8.95024 40.0708 19.7372 40.2207C30.9867 40.3746 40.1671 31.1928 40.0132 19.9457C39.8652 9.15733 31.0819 0.3745 20.2949 0.224514ZM32.4501 31.6879C32.4118 31.7293 32.3649 31.7618 32.3126 31.783C32.2604 31.8043 32.2041 31.8138 32.1477 31.8109C32.0914 31.8079 32.0364 31.7926 31.9866 31.7661C31.9369 31.7395 31.8935 31.7023 31.8598 31.6571C30.9997 30.532 29.9465 29.5687 28.7493 28.8122C26.3014 27.2412 23.1996 26.3759 20.0161 26.3759C16.8326 26.3759 13.7308 27.2412 11.2828 28.8122C10.0856 29.5684 9.03244 30.5313 8.17239 31.6562C8.1386 31.7013 8.09529 31.7385 8.04552 31.7651C7.99576 31.7917 7.94076 31.807 7.88442 31.8099C7.82808 31.8128 7.77179 31.8033 7.71953 31.7821C7.66727 31.7608 7.62033 31.7284 7.58203 31.6869C4.76069 28.6414 3.16252 24.6619 3.09378 20.5111C2.93705 11.1552 10.6146 3.32422 19.9747 3.30115C29.3349 3.27807 36.9384 10.8783 36.9384 20.2226C36.9416 24.4736 35.3385 28.5688 32.4501 31.6879Z" fill="#0B0B0C"/>
<path d="M19.702 9.59766C17.7987 9.59766 16.0779 10.3033 14.8551 11.5857C13.6322 12.8681 13.0213 14.6412 13.1593 16.5443C13.4392 20.2921 16.3742 23.3477 19.702 23.3477C23.0297 23.3477 25.9589 20.2921 26.2446 16.5452C26.3874 14.6603 25.7813 12.9034 24.5382 11.5971C23.3106 10.3081 21.5927 9.59766 19.702 9.59766Z" fill="#0B0B0C"/>
</svg>
