<svg width="40" height="40" viewBox="0 0 40 40" fill="none" xmlns="http://www.w3.org/2000/svg">
<g clip-path="url(#clip0_1395_16793)">
<path d="M11.7499 40C7.49988 40 3.99988 38 1.74988 34.75C-1.00012 30.5 -0.500121 24.75 2.74988 20.25C4.99988 17 7.99988 15 11.7499 14.25C14.7499 13.5 17.2499 11.5 17.9999 8.75C18.4999 6.75 19.7499 5 21.2499 3.75C23.4999 1.25 26.7499 0 29.9999 0C32.7499 0 35.4999 1 37.2499 3C40.9999 7 40.9999 13.5 36.9999 18C35.7499 19.5 33.9999 20.75 31.9999 21.5C28.9999 22.75 26.4999 25.5 25.4999 29C24.7499 31.5 23.4999 33.75 21.7499 35.5C18.9999 38.5 15.2499 40 11.7499 40ZM29.9999 2.5C27.4999 2.5 24.9999 3.5 22.9999 5.5C21.7499 6.75 20.9999 8 20.4999 9.5C19.2499 13.25 15.9999 15.75 12.2499 16.75C9.24988 17.25 6.74988 19 4.74988 21.75C1.99988 25.5 1.74988 30 3.99988 33.5C5.49988 36 8.49988 37.5 11.7499 37.5C14.7499 37.5 17.7499 36.25 19.9999 34C21.4999 32.5 22.7499 30.5 23.2499 28.5C24.2499 24.25 27.2499 21 31.2499 19.5C32.7499 19 34.2499 17.75 35.2499 16.5C38.2499 13 38.4999 7.75 35.4999 4.75C33.9999 3.25 31.9999 2.5 29.9999 2.5Z" fill="black"/>
<path d="M13.917 33.0563C12.146 32.7607 10.9085 31.1938 10.33 28.8867C9.6535 25.8832 10.497 22.1131 12.3483 19.3615C13.6448 17.3674 15.1678 17.2241 16.8132 16.9886C18.1462 16.701 19.3568 14.5801 19.9731 12.8125C20.4023 11.5239 21.1165 10.4528 21.8796 9.73003C23.0933 8.23226 27.6438 6.78102 28.998 7.00708C30.1439 7.19837 32.4427 7.58209 32.951 9.02724C34.0718 11.9349 29.0323 17.5555 26.8685 20.2549C26.1819 21.1606 25.3147 21.866 24.3984 22.2232C23.0103 22.8416 21.6648 24.4874 20.8615 26.7339C20.2728 28.336 19.5035 29.7379 18.5809 30.7742C17.1037 32.568 15.3754 33.2997 13.917 33.0563ZM28.7771 8.33051C27.7354 8.15661 23.4698 9.82544 22.4155 11.0098C21.7566 11.7499 21.306 12.5249 20.932 13.4827C19.9969 15.8772 18.0271 18.0989 16.354 18.4998C15.0487 18.622 14.1531 18.8126 13.016 20.4932C11.4559 22.7833 10.8546 25.7436 11.4056 28.2161C11.7545 29.9747 12.8389 31.1759 14.1931 31.402C15.4432 31.6107 16.8313 30.9922 18.0174 29.6599C18.8081 28.7716 19.5499 27.5352 19.9792 26.2465C20.8653 23.5038 22.4744 21.5619 24.3068 20.8476C24.9871 20.621 25.7502 19.8982 26.305 19.1407C27.9416 17.0333 32.6053 12.3703 31.6866 10.1765C31.2273 9.07958 29.6105 8.46962 28.7771 8.33051Z" fill="black"/>
<path d="M25.6167 13.8067C25.1134 13.8067 24.7335 13.7033 24.3639 14.0593C24.0849 14.3279 23.7978 14.5 23.5758 14.8271C23.3079 15.222 22.8913 15.4662 22.6867 15.8981C22.4823 16.3295 22.585 16.8107 22.3886 17.247C21.6689 18.8463 19.436 19.4293 18.0289 20.1719C17.273 20.5709 16.3351 21.1677 15.887 21.8795C15.5585 22.4011 15.3963 23.1177 15.1797 23.6981C14.9835 24.224 14.9911 24.7599 15.2504 25.2136C15.5884 25.8051 15.9598 26.0826 16.6548 26.0826C17.6827 26.0826 18.0354 25.6453 18.4533 24.8095C18.7647 24.1867 18.9593 23.5247 19.2717 22.8999C19.5863 22.2706 19.9269 21.7043 20.4841 21.2328C20.7509 21.0071 21.1733 20.7012 21.3429 20.4043C21.478 20.168 21.8115 19.9338 22.0249 19.7678C22.2294 19.6088 22.3232 19.401 22.5654 19.2626C22.9775 19.0272 23.4289 18.7724 23.7981 18.4442C24.2417 18.0499 24.6989 17.6406 25.1419 17.2419C25.511 16.9097 25.7389 16.3824 26.1169 16.08C26.3366 15.9042 26.5261 15.1141 26.5261 14.8524C26.5261 14.4266 26.2806 13.9885 25.7986 13.9885" stroke="black" stroke-width="0.5" stroke-linecap="round"/>
</g>
<defs>
<clipPath id="clip0_1395_16793">
<rect width="40" height="40" fill="white"/>
</clipPath>
</defs>
</svg>
