<svg width="36" height="36" viewBox="0 0 36 36" fill="none" xmlns="http://www.w3.org/2000/svg">
<path d="M18 0C14.4399 0 10.9598 1.05568 7.99974 3.03355C5.03966 5.01141 2.73255 7.82263 1.37018 11.1117C0.00779912 14.4008 -0.348661 18.02 0.345873 21.5116C1.04041 25.0033 2.75474 28.2106 5.27208 30.7279C7.78943 33.2453 10.9967 34.9596 14.4884 35.6541C17.98 36.3487 21.5992 35.9922 24.8883 34.6298C28.1774 33.2674 30.9886 30.9603 32.9665 28.0003C34.9443 25.0402 36 21.5601 36 18C35.995 13.2276 34.0969 8.6522 30.7224 5.27764C27.3478 1.90308 22.7724 0.00503969 18 0ZM18 33.2308C14.9876 33.2308 12.0429 32.3375 9.53824 30.6639C7.03356 28.9903 5.08139 26.6116 3.92861 23.8286C2.77583 21.0455 2.47421 17.9831 3.06189 15.0286C3.64958 12.0741 5.10017 9.36028 7.23023 7.23022C9.36029 5.10016 12.0742 3.64957 15.0286 3.06188C17.9831 2.4742 21.0455 2.77582 23.8286 3.9286C26.6116 5.08138 28.9903 7.03355 30.6639 9.53824C32.3375 12.0429 33.2308 14.9876 33.2308 18C33.2262 22.038 31.6201 25.9094 28.7647 28.7647C25.9094 31.62 22.038 33.2262 18 33.2308ZM25.9027 17.0204C26.0314 17.149 26.1336 17.3017 26.2032 17.4698C26.2729 17.6379 26.3088 17.818 26.3088 18C26.3088 18.182 26.2729 18.3621 26.2032 18.5302C26.1336 18.6983 26.0314 18.851 25.9027 18.9796L20.3642 24.5181C20.1044 24.7779 19.752 24.9238 19.3846 24.9238C19.0172 24.9238 18.6648 24.7779 18.405 24.5181C18.1452 24.2583 17.9992 23.9059 17.9992 23.5385C17.9992 23.171 18.1452 22.8187 18.405 22.5588L21.581 19.3846H11.0769C10.7097 19.3846 10.3575 19.2387 10.0979 18.9791C9.83819 18.7194 9.69231 18.3672 9.69231 18C9.69231 17.6328 9.83819 17.2806 10.0979 17.0209C10.3575 16.7613 10.7097 16.6154 11.0769 16.6154H21.581L18.405 13.4412C18.1452 13.1813 17.9992 12.829 17.9992 12.4615C17.9992 12.0941 18.1452 11.7417 18.405 11.4819C18.6648 11.2221 19.0172 11.0762 19.3846 11.0762C19.752 11.0762 20.1044 11.2221 20.3642 11.4819L25.9027 17.0204Z" fill="#6AA237"/>
</svg>
