<svg width="15" height="8" viewBox="0 0 15 8" fill="none" xmlns="http://www.w3.org/2000/svg">
<path d="M1.21682 0.344998C1.14716 0.414563 1.09189 0.497179 1.05419 0.588121C1.01648 0.679064 0.99707 0.776548 0.99707 0.874998C0.99707 0.973448 1.01648 1.07093 1.05419 1.16187C1.09189 1.25282 1.14716 1.33543 1.21682 1.405L7.46683 7.655C7.53639 7.72466 7.61901 7.77993 7.70995 7.81764C7.80089 7.85534 7.89837 7.87475 7.99682 7.87475C8.09527 7.87475 8.19276 7.85534 8.2837 7.81764C8.37464 7.77993 8.45726 7.72466 8.52682 7.655L14.7768 1.405C14.8464 1.3354 14.9016 1.25277 14.9393 1.16183C14.977 1.07089 14.9964 0.973428 14.9964 0.874998C14.9964 0.776568 14.977 0.679102 14.9393 0.588164C14.9016 0.497227 14.8464 0.414599 14.7768 0.344998C14.7072 0.275398 14.6246 0.220187 14.5337 0.18252C14.4427 0.144852 14.3453 0.125464 14.2468 0.125464C14.1484 0.125464 14.0509 0.144852 13.96 0.18252C13.8691 0.220187 13.7864 0.275398 13.7168 0.344998L7.99682 6.064L2.27682 0.344998C2.20726 0.275334 2.12464 0.220067 2.0337 0.18236C1.94276 0.144652 1.84527 0.125244 1.74682 0.125244C1.64837 0.125244 1.55089 0.144652 1.45995 0.18236C1.36901 0.220067 1.28639 0.275334 1.21682 0.344998Z" fill="white"/>
</svg>
